# xmcd
#
# Track frame offsets:
#	150
#	13639
#	28412
#	40482
#	50357
#	62673
#	74204
#	85361
#	98827
#	109658
#	120581
#	134350
#	147814
#	160222
#	178603
#	189574
#	202715
#	217212
#	229886
#	244128
#
# Disc length: 3422 seconds
#
# Revision: 1
# Processed by: cddbd v1.5.2PL0 Copyright (c) Steve Scherf et al.
# Submitted via: audiograbber 1.83.01
#
DISCID=2a0d5c14
DTITLE=Various Artist - Lonestar Jukebox - Disc 1
DYEAR=2002
DGENRE=
TTITLE0=T-Bone Walker - All Night Long
TTITLE1=Him (Sir Douglas Quintet) - One Way Out (It's A Man Down There)
TTITLE2=Roy Head and the Traits - I Can't Stand It
TTITLE3=Barbara Lynn  - You Left The Water Running
TTITLE4=Jimmy Donley - Think It Over
TTITLE5=B.J. Thomas and the Triumphs - I Know It's Wrong
TTITLE6=Ronnie Milsap - Hello Mary Ann
TTITLE7=Freddy Fender - There is Something on Your Mind
TTITLE8=Floyd Tillman - It Makes No Difference Now
TTITLE9=Ivory Joe Hunter - Ask You For The Last Time
TTITLE10=Sir Douglas - The Image of Me
TTITLE11=Gloria Edwards - I Settled For Less
TTITLE12=Mikey Gilley - It Wasn't God Who Made Honkey Tonk Angels
TTITLE13=Delbert McClinton - Without You
TTITLE14=Rod Bernard - Colinda
TTITLE15=Freddy Fender - In The Still of The Night
TTITLE16=T-Bone Walker - Don't Make Promises You Can't Keep
TTITLE17=B.J. Thomas and the Triumphs - Mama
TTITLE18=Johnny Copeland - I'm Going to Make My Home Where I Lay My Hat
TTITLE19=Sunny and the Sunliners - You Send Me
EXTD=
EXTT0=
EXTT1=
EXTT2=
EXTT3=
EXTT4=
EXTT5=
EXTT6=
EXTT7=
EXTT8=
EXTT9=
EXTT10=
EXTT11=
EXTT12=
EXTT13=
EXTT14=
EXTT15=
EXTT16=
EXTT17=
EXTT18=
EXTT19=
PLAYORDER=
